<svg xmlns="http://www.w3.org/2000/svg" viewBox="0 0 400 400">
  <rect width="400" height="400" rx="24" fill="#EDE9FE"/>
  <!-- Base bowl -->
  <ellipse cx="200" cy="280" rx="100" ry="30" fill="#8B5CF6" opacity="0.3"/>
  <path d="M120 240 Q120 280 200 280 Q280 280 280 240 L270 200 Q270 190 200 190 Q130 190 130 200 Z" fill="#8B5CF6"/>
  <ellipse cx="200" cy="195" rx="70" ry="18" fill="#A78BFA"/>
  <!-- Water stream -->
  <path d="M200 100 Q200 150 200 180" stroke="#C4B5FD" stroke-width="6" fill="none" stroke-linecap="round"/>
  <path d="M200 100 Q185 130 190 160" stroke="#C4B5FD" stroke-width="4" fill="none" stroke-linecap="round" opacity="0.7"/>
  <path d="M200 100 Q215 130 210 160" stroke="#C4B5FD" stroke-width="4" fill="none" stroke-linecap="round" opacity="0.7"/>
  <!-- Droplets -->
  <circle cx="188" cy="130" r="4" fill="#C4B5FD" opacity="0.8"/>
  <circle cx="215" cy="145" r="3" fill="#C4B5FD" opacity="0.6"/>
  <circle cx="195" cy="155" r="3.5" fill="#C4B5FD" opacity="0.7"/>
  <!-- Spout -->
  <rect x="190" y="85" width="20" height="20" rx="6" fill="#7C3AED"/>
  <text x="200" y="350" text-anchor="middle" font-family="system-ui,sans-serif" font-size="18" font-weight="600" fill="#6D28D9">Cat Water Fountain</text>
</svg>