<svg xmlns="http://www.w3.org/2000/svg" viewBox="0 0 400 400">
  <rect width="400" height="400" rx="24" fill="#EDE9FE"/>
  <!-- Ball toy -->
  <circle cx="150" cy="230" r="35" fill="#8B5CF6"/>
  <circle cx="150" cy="230" r="28" fill="none" stroke="#A78BFA" stroke-width="2"/>
  <path d="M135 215 Q150 225 165 215" stroke="#C4B5FD" stroke-width="2" fill="none"/>
  <!-- Feather toy -->
  <line x1="250" y1="260" x2="250" y2="140" stroke="#7C3AED" stroke-width="3" stroke-linecap="round"/>
  <ellipse cx="245" cy="130" rx="8" ry="25" fill="#A78BFA" transform="rotate(-10 245 130)"/>
  <ellipse cx="258" cy="135" rx="7" ry="22" fill="#8B5CF6" transform="rotate(10 258 135)"/>
  <ellipse cx="250" cy="125" rx="6" ry="20" fill="#C4B5FD"/>
  <!-- Small bell at bottom of feather -->
  <circle cx="250" cy="268" r="8" fill="#7C3AED"/>
  <circle cx="250" cy="268" r="3" fill="#EDE9FE"/>
  <!-- Mouse toy -->
  <ellipse cx="200" cy="185" rx="22" ry="16" fill="#7C3AED"/>
  <circle cx="185" cy="178" r="3" fill="#EDE9FE"/>
  <path d="M222 185 Q240 180 245 185" stroke="#7C3AED" stroke-width="2" fill="none"/>
  <ellipse cx="182" cy="172" rx="6" ry="8" fill="#A78BFA"/>
  <text x="200" y="350" text-anchor="middle" font-family="system-ui,sans-serif" font-size="18" font-weight="600" fill="#6D28D9">Cat Toy Set</text>
</svg>