<svg xmlns="http://www.w3.org/2000/svg" viewBox="0 0 400 400">
  <rect width="400" height="400" rx="24" fill="#FEF3C7"/>
  <!-- Bone 1 (angled) -->
  <g transform="translate(200,180) rotate(-25)">
    <rect x="-55" y="-12" width="110" height="24" rx="10" fill="#F59E0B"/>
    <circle cx="-50" cy="-10" r="14" fill="#F59E0B"/>
    <circle cx="-50" cy="10" r="14" fill="#F59E0B"/>
    <circle cx="50" cy="-10" r="14" fill="#F59E0B"/>
    <circle cx="50" cy="10" r="14" fill="#F59E0B"/>
  </g>
  <!-- Bone 2 (smaller, different angle) -->
  <g transform="translate(200,240) rotate(15)">
    <rect x="-42" y="-10" width="84" height="20" rx="8" fill="#FBBF24"/>
    <circle cx="-38" cy="-8" r="12" fill="#FBBF24"/>
    <circle cx="-38" cy="8" r="12" fill="#FBBF24"/>
    <circle cx="38" cy="-8" r="12" fill="#FBBF24"/>
    <circle cx="38" cy="8" r="12" fill="#FBBF24"/>
  </g>
  <!-- Sparkle/clean indicator -->
  <g transform="translate(260,130)" fill="#D97706" opacity="0.6">
    <line x1="0" y1="-10" x2="0" y2="10" stroke="#D97706" stroke-width="2.5"/>
    <line x1="-10" y1="0" x2="10" y2="0" stroke="#D97706" stroke-width="2.5"/>
    <line x1="-7" y1="-7" x2="7" y2="7" stroke="#D97706" stroke-width="2"/>
    <line x1="7" y1="-7" x2="-7" y2="7" stroke="#D97706" stroke-width="2"/>
  </g>
  <text x="200" y="350" text-anchor="middle" font-family="system-ui,sans-serif" font-size="18" font-weight="600" fill="#B45309">Dental Chew Toys</text>
</svg>