<svg xmlns="http://www.w3.org/2000/svg" viewBox="0 0 400 400">
  <rect width="400" height="400" rx="24" fill="#FEF3C7"/>
  <!-- Bowl outer -->
  <ellipse cx="200" cy="270" rx="110" ry="30" fill="#D97706" opacity="0.3"/>
  <path d="M100 230 Q100 275 200 280 Q300 275 300 230 L290 195 Q285 180 200 175 Q115 180 110 195 Z" fill="#F59E0B"/>
  <!-- Bowl inner rim -->
  <ellipse cx="200" cy="190" rx="85" ry="22" fill="#FBBF24"/>
  <!-- Maze pattern inside -->
  <path d="M160 190 Q160 210 200 210 Q240 210 240 190" stroke="#D97706" stroke-width="5" fill="none" stroke-linecap="round"/>
  <path d="M145 195 L145 220" stroke="#D97706" stroke-width="5" fill="none" stroke-linecap="round"/>
  <path d="M255 195 L255 220" stroke="#D97706" stroke-width="5" fill="none" stroke-linecap="round"/>
  <circle cx="175" cy="205" r="6" fill="#D97706"/>
  <circle cx="225" cy="205" r="6" fill="#D97706"/>
  <circle cx="200" cy="195" r="6" fill="#D97706"/>
  <text x="200" y="350" text-anchor="middle" font-family="system-ui,sans-serif" font-size="18" font-weight="600" fill="#B45309">Slow Feeder Bowl</text>
</svg>