<svg xmlns="http://www.w3.org/2000/svg" viewBox="0 0 400 400">
  <rect width="400" height="400" rx="24" fill="#EDE9FE"/>
  <!-- Scratching pad base - angled -->
  <path d="M120 280 L150 130 Q155 110 175 110 L225 110 Q245 110 250 130 L280 280 Q282 295 270 295 L130 295 Q118 295 120 280 Z" fill="#8B5CF6"/>
  <!-- Corrugated texture lines -->
  <line x1="158" y1="140" x2="155" y2="160" stroke="#7C3AED" stroke-width="2.5" opacity="0.6"/>
  <line x1="170" y1="140" x2="165" y2="170" stroke="#7C3AED" stroke-width="2.5" opacity="0.6"/>
  <line x1="182" y1="140" x2="175" y2="180" stroke="#7C3AED" stroke-width="2.5" opacity="0.6"/>
  <line x1="194" y1="140" x2="185" y2="190" stroke="#7C3AED" stroke-width="2.5" opacity="0.6"/>
  <line x1="206" y1="140" x2="195" y2="200" stroke="#7C3AED" stroke-width="2.5" opacity="0.6"/>
  <line x1="218" y1="140" x2="205" y2="210" stroke="#7C3AED" stroke-width="2.5" opacity="0.6"/>
  <line x1="230" y1="140" x2="215" y2="220" stroke="#7C3AED" stroke-width="2.5" opacity="0.6"/>
  <line x1="242" y1="140" x2="225" y2="230" stroke="#7C3AED" stroke-width="2.5" opacity="0.6"/>
  <!-- Scratch marks -->
  <path d="M175 170 Q180 200 170 240" stroke="#C4B5FD" stroke-width="2" fill="none" opacity="0.8"/>
  <path d="M190 165 Q195 195 185 235" stroke="#C4B5FD" stroke-width="2" fill="none" opacity="0.8"/>
  <path d="M205 160 Q210 190 200 230" stroke="#C4B5FD" stroke-width="2" fill="none" opacity="0.8"/>
  <text x="200" y="350" text-anchor="middle" font-family="system-ui,sans-serif" font-size="18" font-weight="600" fill="#6D28D9">Scratching Pad</text>
</svg>